<?xml version="1.0" encoding="UTF-8"?>
<svg width="32px" height="32px" viewBox="0 0 32 32" version="1.1" xmlns="http://www.w3.org/2000/svg" xmlns:xlink="http://www.w3.org/1999/xlink">
    <title>GB</title>
    <g id="GB" stroke="none" stroke-width="1" fill="none" fill-rule="evenodd">
        <g id="united-kingdom" fill-rule="nonzero">
            <circle id="Oval" fill="#F0F0F0" cx="16" cy="16" r="16"></circle>
            <path d="M3.3075,6.258875 C2.0506875,7.8940625 1.103,9.77875 0.5511875,11.8261875 L8.8748125,11.8261875 L3.3075,6.258875 Z" id="Shape" fill="#00206D"></path>
            <path d="M31.4488125,11.8261875 C30.897,9.7788125 29.94925,7.894125 28.6925,6.2589375 L23.1253125,11.8261875 L31.4488125,11.8261875 Z" id="Shape" fill="#00206D"></path>
            <path d="M0.5511875,20.174 C1.1030625,22.221375 2.05075,24.1060625 3.3075,25.7411875 L8.874625,20.174 L0.5511875,20.174 L0.5511875,20.174 Z" id="Shape" fill="#00206D"></path>
            <path d="M25.741125,3.3075625 C24.1059375,2.05075 22.2213125,1.1030625 20.173875,0.5511875 L20.173875,8.87475 L25.741125,3.3075625 Z" id="Shape" fill="#00206D"></path>
            <path d="M6.258875,28.6924375 C7.8940625,29.94925 9.77875,30.8969375 11.826125,31.4488125 L11.826125,23.1253125 L6.258875,28.6924375 Z" id="Shape" fill="#00206D"></path>
            <path d="M11.8260625,0.5511875 C9.7786875,1.1030625 7.894,2.05075 6.258875,3.3075 L11.8260625,8.8746875 L11.8260625,0.5511875 Z" id="Shape" fill="#00206D"></path>
            <path d="M20.1739375,31.4488125 C22.2213125,30.8969375 24.106,29.94925 25.741125,28.6925 L20.1739375,23.1253125 L20.1739375,31.4488125 Z" id="Shape" fill="#00206D"></path>
            <path d="M23.1253125,20.174 L28.6925,25.74125 C29.94925,24.106125 30.897,22.221375 31.4488125,20.174 L23.1253125,20.174 Z" id="Shape" fill="#00206D"></path>
            <path d="M31.8645625,13.9130625 L18.0870625,13.9130625 L18.087,13.9130625 L18.087,0.1354375 C17.4038125,0.0465 16.7073125,0 16,0 C15.2925625,0 14.5961875,0.0465 13.9130625,0.1354375 L13.9130625,13.9129375 L13.9130625,13.913 L0.1354375,13.913 C0.0465,14.5961875 0,15.2926875 0,16 C0,16.7074375 0.0465,17.4038125 0.1354375,18.0869375 L13.9129375,18.0869375 L13.913,18.0869375 L13.913,31.8645625 C14.5961875,31.9535 15.2925625,32 16,32 C16.7073125,32 17.4038125,31.9535625 18.0869375,31.8645625 L18.0869375,18.0870625 L18.0869375,18.087 L31.8645625,18.087 C31.9535,17.4038125 32,16.7074375 32,16 C32,15.2926875 31.9535,14.5961875 31.8645625,13.9130625 Z" id="Shape" fill="#D80027"></path>
            <path d="M20.1739375,20.1739375 L20.1739375,20.1739375 L27.3136875,27.31375 C27.6420625,26.9855 27.9553125,26.6423125 28.2541875,26.2865625 L22.1415625,20.1739375 L20.1739375,20.1739375 L20.1739375,20.1739375 Z" id="Shape" fill="#D80027"></path>
            <path d="M11.8260625,20.174 L11.8259375,20.174 L4.68625,27.3136875 C5.0145,27.6420625 5.3576875,27.9553125 5.7134375,28.2541875 L11.8260625,22.1414375 L11.8260625,20.174 Z" id="Shape" fill="#D80027"></path>
            <path d="M11.8260625,11.8261875 L11.8260625,11.8260625 L4.6863125,4.68625 C4.3579375,5.0145 4.0446875,5.3576875 3.7458125,5.7134375 L9.8585,11.8261875 L11.8260625,11.8261875 L11.8260625,11.8261875 Z" id="Shape" fill="#D80027"></path>
            <path d="M20.1739375,11.8261875 L20.1739375,11.8261875 L27.31375,4.6863125 C26.9855,4.3579375 26.6423125,4.0446875 26.2865625,3.745875 L20.1739375,9.8585625 L20.1739375,11.8261875 L20.1739375,11.8261875 Z" id="Shape" fill="#D80027"></path>
        </g>
    </g>
</svg>