<?xml version="1.0" encoding="UTF-8"?>
<svg width="32px" height="32px" viewBox="0 0 32 32" version="1.1" xmlns="http://www.w3.org/2000/svg" xmlns:xlink="http://www.w3.org/1999/xlink">
    <title>DE</title>
    <g id="DE" stroke="none" stroke-width="1" fill="none" fill-rule="evenodd">
        <g id="germany" fill-rule="nonzero">
            <path d="M0.9951875,21.5651875 C3.255875,27.6579375 9.1205625,32 16,32 C22.8794375,32 28.744125,27.6579375 31.0048125,21.5651875 L16,20.1739375 L0.9951875,21.5651875 Z" id="Shape" fill="#FFDA44"></path>
            <path d="M16,0 C9.1205625,0 3.255875,4.342 0.9951875,10.4348125 L16,11.8260625 L31.0048125,10.43475 C28.744125,4.342 22.8794375,0 16,0 Z" id="Shape" fill="#000000"></path>
            <path d="M0.9951875,10.4348125 C0.3520625,12.168125 0,14.042875 0,16 C0,17.957125 0.3520625,19.831875 0.9951875,21.5651875 L31.004875,21.5651875 C31.648,19.831875 32,17.957125 32,16 C32,14.042875 31.648,12.168125 31.0048125,10.4348125 L0.9951875,10.4348125 Z" id="Shape" fill="#D80027"></path>
        </g>
    </g>
</svg>