<?xml version="1.0" encoding="UTF-8"?>
<svg width="32px" height="32px" viewBox="0 0 32 32" version="1.1" xmlns="http://www.w3.org/2000/svg" xmlns:xlink="http://www.w3.org/1999/xlink">
    <title>CN</title>
    <g id="CN" stroke="none" stroke-width="1" fill="none" fill-rule="evenodd">
        <g id="china" fill-rule="nonzero">
            <circle id="Oval" fill="#D80027" cx="16" cy="16" r="16"></circle>
            <polygon id="Shape" fill="#FFDA44" points="8.75625 9.7375 10.1375 13.9875 14.60625 13.9875 10.99375 16.61875 12.375 20.86875 8.75625 18.24375 5.1375 20.86875 6.525 16.61875 2.90625 13.9875 7.375 13.9875"></polygon>
            <polygon id="Shape" fill="#FFDA44" points="18.96875 24.78125 17.9125 23.48125 16.35 24.0875 17.25625 22.68125 16.2 21.375 17.81875 21.80625 18.73125 20.4 18.81875 22.075 20.44375 22.50625 18.875 23.10625"></polygon>
            <polygon id="Shape" fill="#FFDA44" points="21.06875 20.96875 21.56875 19.36875 20.2 18.4 21.875 18.375 22.36875 16.775 22.9125 18.3625 24.5875 18.34375 23.24375 19.34375 23.78125 20.93125 22.4125 19.9625"></polygon>
            <polygon id="Shape" fill="#FFDA44" points="23.9 11.74375 23.1625 13.25 24.3625 14.41875 22.70625 14.18125 21.96875 15.68125 21.68125 14.03125 20.01875 13.79375 21.50625 13.0125 21.21875 11.35625 22.41875 12.525"></polygon>
            <polygon id="Shape" fill="#FFDA44" points="19.0125 7.18125 18.8875 8.85 20.44375 9.48125 18.8125 9.88125 18.69375 11.55625 17.8125 10.13125 16.18125 10.53125 17.2625 9.25 16.375 7.83125 17.93125 8.4625"></polygon>
        </g>
    </g>
</svg>