<svg xmlns="http://www.w3.org/2000/svg" width="121" height="32" viewBox="0 0 121 32"><g fill="none" fill-rule="evenodd"><path fill="#37C5D3" d="M14.034 5.539a1.62 1.62 0 0 1 .708 2.177L3.694 29.443a1.616 1.616 0 0 1-2.172.708l-.002-.001a1.621 1.621 0 0 1-.708-2.178L11.86 6.245a1.616 1.616 0 0 1 2.172-.708l.002.002zm2.338 7.837a1.62 1.62 0 0 1 .707 2.177l-7.063 13.89a1.616 1.616 0 0 1-2.172.708l-.002-.001a1.62 1.62 0 0 1-.707-2.178l7.063-13.89a1.613 1.613 0 0 1 2.171-.707h.003zm3.172 6.462a1.62 1.62 0 0 1 .708 2.177l-3.777 7.428a1.616 1.616 0 0 1-2.172.708l-.002-.001a1.621 1.621 0 0 1-.708-2.178l3.777-7.428a1.615 1.615 0 0 1 2.172-.707h.002z"/><path fill="#87E273" fill-rule="nonzero" d="M22.944 2.054c.003 7.288 5.427 15.041 11.747 17.234a1.62 1.62 0 0 0 2.062-.996 1.619 1.619 0 0 0-1-2.059c-5.006-1.736-9.566-8.256-9.569-14.177a1.62 1.62 0 0 0-3.24-.002zm-11.182-.028c-.315 13.806 9.144 26.1 22.792 29.25a1.618 1.618 0 0 0 1.943-1.21 1.62 1.62 0 0 0-1.215-1.94C23.138 25.322 14.72 14.382 15 2.102A1.621 1.621 0 0 0 13.417.447a1.618 1.618 0 0 0-1.656 1.579z"/><path fill="#87E273" fill-rule="nonzero" d="M17.325 2.02c-.252 10.643 7.033 20.682 17.246 23.04a1.62 1.62 0 0 0 1.943-1.212 1.62 1.62 0 0 0-1.215-1.94C26.629 19.907 20.348 11.25 20.564 2.1a1.62 1.62 0 0 0-3.239-.079z"/><path fill="#FFF" fill-rule="nonzero" d="M43.29 25.153c0-2.787 2.01-5.068 4.656-5.068 1.39 0 2.55.721 3.09 1.5V20.28h2.125v9.747h-2.125v-1.306c-.54.78-1.7 1.501-3.09 1.501-2.647 0-4.656-2.28-4.656-5.069zm7.92 0c0-1.754-1.159-3.119-2.878-3.119-1.72 0-2.878 1.365-2.878 3.12 0 1.754 1.159 3.119 2.878 3.119s2.878-1.365 2.878-3.12zm4.83 4.874V15.406h2.124v14.621h-2.125zm5.89 0V22.19h-2.008v-1.91h2.009v-1.638c0-2.183 1.448-3.353 3.303-3.353.656 0 1.178.097 1.584.234v1.91a3.407 3.407 0 0 0-1.14-.195c-1.101 0-1.623.449-1.623 1.658v1.384h2.763v1.91h-2.763v7.837h-2.124zm5.892-4.874c0-2.787 2.009-5.068 4.655-5.068 1.391 0 2.55.721 3.09 1.5V20.28h2.126v9.747h-2.125v-1.306c-.54.78-1.7 1.501-3.09 1.501-2.647 0-4.656-2.28-4.656-5.069zm7.92 0c0-1.754-1.16-3.119-2.878-3.119-1.72 0-2.878 1.365-2.878 3.12 0 1.754 1.158 3.119 2.878 3.119 1.719 0 2.878-1.365 2.878-3.12zm13.734 2.379c-.83 1.618-2.511 2.69-4.501 2.69-2.897 0-5.1-2.183-5.1-5.069 0-2.885 2.203-5.068 5.1-5.068 1.99 0 3.67 1.072 4.5 2.69l-1.854 1.014c-.463-.994-1.41-1.716-2.646-1.716-1.72 0-2.936 1.345-2.936 3.08 0 1.736 1.217 3.08 2.936 3.08 1.236 0 2.183-.72 2.646-1.715l1.855 1.014zm1.255-2.379c0-2.787 2.01-5.068 4.656-5.068 1.39 0 2.55.721 3.09 1.5V20.28h2.125v9.747h-2.125v-1.306c-.54.78-1.7 1.501-3.09 1.501-2.647 0-4.656-2.28-4.656-5.069zm7.92 0c0-1.754-1.159-3.119-2.878-3.119-1.72 0-2.878 1.365-2.878 3.12 0 1.754 1.159 3.119 2.878 3.119s2.878-1.365 2.878-3.12zm11.397 2.047c0 1.872-1.507 3.022-3.497 3.022-1.719 0-3.187-.682-3.882-2.066l1.564-1.131c.387.858 1.333 1.345 2.318 1.345.754 0 1.391-.35 1.391-1.033 0-.565-.328-.897-1.487-1.248l-.85-.234c-1.68-.468-2.55-1.54-2.53-2.982.019-1.736 1.525-2.788 3.457-2.788 1.449 0 2.588.585 3.265 1.657l-1.469 1.13c-.424-.604-1.043-.994-1.835-.994-.637 0-1.294.332-1.294.917 0 .467.213.877 1.16 1.15l.984.292c1.7.507 2.705 1.365 2.705 2.963zm2.202 2.827V15.406h2.124v6.2c.58-.975 1.681-1.521 2.937-1.521 2.24 0 3.689 1.598 3.689 4.074v5.868h-2.125V24.51c0-1.54-.772-2.476-2.009-2.476-1.41 0-2.492 1.111-2.492 3.197v4.796h-2.124z"/></g></svg>